HIERARCHY
ROOT root
{
	OFFSET	0	13.1	24.9
	CHANNELS 6  Xposition Yposition Zposition Xrotation Yrotation Zrotation
	JOINT spine_1
	{
		OFFSET	0	9.99999	0
		CHANNELS 3  Xrotation Yrotation Zrotation
		JOINT spine_2
		{
			OFFSET	0	112	-10
			CHANNELS 3  Xrotation Yrotation Zrotation
			JOINT spine_3
			{
				OFFSET	0	206.5	19.3
				CHANNELS 3  Xrotation Yrotation Zrotation
				JOINT spine_4
				{
					OFFSET	0	110.4	14.6
					CHANNELS 3  Xrotation Yrotation Zrotation
					JOINT neck_1
					{
						OFFSET	0	71.8	-50.3
						CHANNELS 3  Xrotation Yrotation Zrotation
						JOINT neck_2
						{
							OFFSET	0	86.2	-25.8
							CHANNELS 3  Xrotation Yrotation Zrotation
							JOINT head_ee
							{
								OFFSET	0	179.8	-8.7
								CHANNELS 3  Xrotation Yrotation Zrotation
								End Site
								{
									OFFSET	1	0	0
								}
							}
						}
					}
					JOINT left_clavicle
					{
						OFFSET	-43.2	22.4	-70.8
						CHANNELS 3  Xrotation Yrotation Zrotation
						JOINT left_shoulder
						{
							OFFSET	-93.9	-5.79999	48.7
							CHANNELS 3  Xrotation Yrotation Zrotation
							JOINT left_elbow
							{
								OFFSET	-291.4	-30.8	15.2
								CHANNELS 3  Xrotation Yrotation Zrotation
								JOINT left_lowarm_twist
								{
									OFFSET	-110.7	-3.89999	13.6
									CHANNELS 3  Xrotation Yrotation Zrotation
									JOINT left_hand
									{
										OFFSET	-110.7	-3.89999	13.6
										CHANNELS 3  Xrotation Yrotation Zrotation
										JOINT left_ee
										{
											OFFSET	-80.8	-5.10001	12.1
											CHANNELS 3  Xrotation Yrotation Zrotation
											End Site
											{
												OFFSET	1	0	0
											}
										}
									}
								}
							}
						}
					}
					JOINT right_clavicle
					{
						OFFSET	43.2	22.4	-70.8
						CHANNELS 3  Xrotation Yrotation Zrotation
						JOINT right_shoulder
						{
							OFFSET	93.9	-5.79999	48.7
							CHANNELS 3  Xrotation Yrotation Zrotation
							JOINT right_elbow
							{
								OFFSET	291.4	-30.8	15.2
								CHANNELS 3  Xrotation Yrotation Zrotation
								JOINT right_lowarm_twist
								{
									OFFSET	110.7	-3.89999	13.6
									CHANNELS 3  Xrotation Yrotation Zrotation
									JOINT right_hand
									{
										OFFSET	110.7	-3.89999	13.6
										CHANNELS 3  Xrotation Yrotation Zrotation
										JOINT right_ee
										{
											OFFSET	80.8	-5.10001	12.1
											CHANNELS 3  Xrotation Yrotation Zrotation
											End Site
											{
												OFFSET	1	0	0
											}
										}
									}
								}
							}
						}
					}
				}
			}
		}
	}
	JOINT left_hip
	{
		OFFSET	-82.8	-127.5	0.300001
		CHANNELS 3  Xrotation Yrotation Zrotation
		JOINT left_knee
		{
			OFFSET	-28.2	-396.7	2.2
			CHANNELS 3  Xrotation Yrotation Zrotation
			JOINT left_ankle
			{
				OFFSET	-11.7	-411.3	35.4
				CHANNELS 3  Xrotation Yrotation Zrotation
				JOINT left_toes
				{
					OFFSET	0	-60	-88.6
					CHANNELS 3  Xrotation Yrotation Zrotation
					JOINT left_foot_ee
					{
						OFFSET	-22.5	-16.5	-42.2
						CHANNELS 3  Xrotation Yrotation Zrotation
						End Site
						{
							OFFSET	1	0	0
						}
					}
				}
			}
		}
	}
	JOINT right_hip
	{
		OFFSET	82.8	-127.5	0.300001
		CHANNELS 3  Xrotation Yrotation Zrotation
		JOINT right_knee
		{
			OFFSET	28.2	-396.7	2.2
			CHANNELS 3  Xrotation Yrotation Zrotation
			JOINT right_ankle
			{
				OFFSET	11.7	-411.3	35.4
				CHANNELS 3  Xrotation Yrotation Zrotation
				JOINT right_toes
				{
					OFFSET	0	-60	-88.6
					CHANNELS 3  Xrotation Yrotation Zrotation
					JOINT right_foot_ee
					{
						OFFSET	22.5	-16.5	-42.2
						CHANNELS 3  Xrotation Yrotation Zrotation
						End Site
						{
							OFFSET	1	0	0
						}
					}
				}
			}
		}
	}
}
MOTION
Frames: 8
Frame Time: 0.02
3177.02 653.055 -1669.29 -4.01017834349 7.46465506956 -3.10883761773 -2.13893 0.569113 1.82215 -2.13719 0.452032 1.85465 -2.12016 -0.0184216 1.90884 -2.12514 0.283221 1.88781 7.45739 4.94676 -5.75297 7.91083 13.4465 -6.71169 -0.0 0.0 -0.0 7.89638 24.8734 13.5588 -20.169 -29.5904 61.406 0.490004 -13.6439 0.0586203 -25.7002 -1.57405 2.85648 3.7271 15.234 30.9916 -0.0 0.0 -0.0 9.26215 27.5748 -17.0463 8.31525 16.364 -50.6516 2.00305 44.7721 -0.825099 5.5981 -0.163331 0.696137 1.9484 10.2321 -8.83499 0.0 0.0 0.0 33.1997 23.6578 2.93863 -3.7133 0.134978 0.553792 -3.94803 9.04957 0.582755 -30.2798 0.0 0.0 -0.0 0.0 -0.0 -19.6792 54.112 13.3776 -17.7408 -0.315689 -2.69332 36.7868 -4.22691 4.56953 11.5159 -0.0 -0.0 0.0 0.0 0.0 
3159.07228269 652.355 -1690.97671355 -4.12669709589 6.45708940441 -2.76433627123 -1.99181 0.471561 1.74454 -1.99019 0.359614 1.771 -1.97703 -0.0829349 1.80523 -1.98152 0.203161 1.79568 8.87591 6.66238 -5.95202 9.54474 16.4201 -7.1558 -0.0 0.0 -0.0 8.89818 24.4881 15.0408 -19.287 -29.9639 60.5555 0.498934 -13.883 0.0607449 -26.1132 -1.6094 2.89588 3.68994 17.4339 31.2861 -0.0 0.0 -0.0 9.44961 27.9927 -17.4147 5.1544 18.1235 -49.829 1.83468 42.2619 -0.709136 5.09581 -0.151465 0.633071 2.47638 11.6316 -11.8299 0.0 0.0 0.0 33.008 23.6572 3.09599 -4.43181 0.156932 0.661875 -4.85406 12.8533 0.71971 -30.1395 0.0 0.0 -0.0 0.0 -0.0 -18.219 53.5785 12.165 -20.8587 -0.284443 -3.17064 35.5066 -5.14859 4.44744 10.0672 -0.0 -0.0 0.0 0.0 0.0 
3158.82143412 652.355 -1690.76664548 -4.13240647167 7.1213143269 -2.71604129007 -1.99181 0.471561 1.74454 -1.99019 0.359614 1.771 -1.97703 -0.0829349 1.80523 -1.98152 0.203161 1.79568 8.87591 6.66238 -5.95202 9.54474 16.4201 -7.1558 -0.0 0.0 -0.0 8.89818 24.4881 15.0408 -19.287 -29.9639 60.5555 0.498934 -13.883 0.0607449 -26.1132 -1.6094 2.89588 3.68994 17.4339 31.2861 -0.0 0.0 -0.0 9.44961 27.9927 -17.4147 5.1544 18.1235 -49.829 1.83468 42.2619 -0.709136 5.09581 -0.151465 0.633071 2.47638 11.6316 -11.8299 0.0 0.0 0.0 33.008 23.6572 3.09599 -4.43181 0.156932 0.661875 -4.85406 12.8533 0.71971 -30.1395 0.0 0.0 -0.0 0.0 -0.0 -18.219 53.5785 12.165 -20.8587 -0.284443 -3.17064 35.5066 -5.14859 4.44744 10.0672 -0.0 -0.0 0.0 0.0 0.0 
3158.65063559 652.355 -1690.62074195 -4.13665815227 7.5773344706 -2.68280412533 -1.99181 0.471561 1.74454 -1.99019 0.359614 1.771 -1.97703 -0.0829349 1.80523 -1.98152 0.203161 1.79568 8.87591 6.66238 -5.95202 9.54474 16.4201 -7.1558 -0.0 0.0 -0.0 8.89818 24.4881 15.0408 -19.287 -29.9639 60.5555 0.498934 -13.883 0.0607449 -26.1132 -1.6094 2.89588 3.68994 17.4339 31.2861 -0.0 0.0 -0.0 9.44961 27.9927 -17.4147 5.1544 18.1235 -49.829 1.83468 42.2619 -0.709136 5.09581 -0.151465 0.633071 2.47638 11.6316 -11.8299 0.0 0.0 0.0 33.008 23.6572 3.09599 -4.43181 0.156932 0.661875 -4.85406 12.8533 0.71971 -30.1395 0.0 0.0 -0.0 0.0 -0.0 -18.219 53.5785 12.165 -20.8587 -0.284443 -3.17064 35.5066 -5.14859 4.44744 10.0672 -0.0 -0.0 0.0 0.0 0.0 
3107.19050819 658.067 -1772.03381556 -2.06205899793 2.33868958826 -5.26980083288 -2.13156 0.493324 2.64757 -2.12772 0.323914 2.67357 -2.10814 -0.34386 2.67108 -2.11809 0.0821436 2.69185 6.83673 6.02188 0.566977 6.95547 9.6616 0.849539 -0.0 0.0 -0.0 9.89381 24.5291 16.4803 -18.984 -31.4194 56.338 0.546765 -15.1552 0.0727369 -29.5617 -1.91549 3.21477 2.82405 22.4082 26.4287 -0.0 0.0 -0.0 8.86368 27.44 -16.1781 -0.511263 22.7684 -54.1988 1.38757 34.5013 -0.43089 5.52298 -0.161592 0.686698 2.77124 8.56686 -15.2471 0.0 0.0 0.0 28.6713 18.7399 5.58466 -18.9612 0.306553 2.88034 23.6239 20.0118 -3.25559 -32.7456 0.0 0.0 -0.0 0.0 -0.0 -14.8397 53.4757 8.73966 -35.9245 0.228051 -5.41934 33.6461 -19.2678 4.38615 11.6767 -0.0 -0.0 0.0 0.0 0.0 
3082.08826144 658.174 -1821.39379854 -0.247710341912 1.5859977386 -4.95931320253 -1.91962 0.303101 1.98967 -1.91744 0.175905 2.00492 -1.90899 -0.31589 1.98768 -1.9145 0.00192569 2.01261 6.01617 7.40976 3.42073 6.12256 9.57679 4.24692 -0.0 0.0 -0.0 9.15177 24.414 15.4194 -16.412 -32.2776 56.2819 0.736401 -20.0415 0.130124 -30.6467 -2.01573 3.31126 2.73362 23.1138 25.994 -0.0 0.0 -0.0 8.23184 27.6676 -14.7571 -3.94905 24.1657 -56.0256 1.01658 26.7286 -0.241521 6.48241 -0.182878 0.807408 2.60064 8.80346 -13.9532 0.0 0.0 0.0 25.6456 18.015 5.28064 -25.5045 0.18984 3.8771 35.4129 25.2889 -4.71401 -36.2709 0.0 0.0 -0.0 0.0 -0.0 -9.20157 51.76 5.78667 -42.5394 0.636174 -6.35006 40.3025 -24.7202 5.18777 13.0198 -0.0 -0.0 0.0 0.0 0.0 
3078.65831075 658.174 -1819.19856748 -0.247930193092 2.88734453134 -4.9536803082 -1.91962 0.303101 1.98967 -1.91744 0.175905 2.00492 -1.90899 -0.31589 1.98768 -1.9145 0.00192569 2.01261 6.01617 7.40976 3.42073 6.12256 9.57679 4.24692 -0.0 0.0 -0.0 9.15177 24.414 15.4194 -16.412 -32.2776 56.2819 0.736401 -20.0415 0.130124 -30.6467 -2.01573 3.31126 2.73362 23.1138 25.994 -0.0 0.0 -0.0 8.23184 27.6676 -14.7571 -3.94905 24.1657 -56.0256 1.01658 26.7286 -0.241521 6.48241 -0.182878 0.807408 2.60064 8.80346 -13.9532 0.0 0.0 0.0 25.6456 18.015 5.28064 -25.5045 0.18984 3.8771 35.4129 25.2889 -4.71401 -36.2709 0.0 0.0 -0.0 0.0 -0.0 -9.20157 51.76 5.78667 -42.5394 0.636174 -6.35006 40.3025 -24.7202 5.18777 13.0198 -0.0 -0.0 0.0 0.0 0.0 
3076.78192457 658.174 -1817.95044783 -0.248107070067 3.60749016367 -4.95055797103 -1.91962 0.303101 1.98967 -1.91744 0.175905 2.00492 -1.90899 -0.31589 1.98768 -1.9145 0.00192569 2.01261 6.01617 7.40976 3.42073 6.12256 9.57679 4.24692 -0.0 0.0 -0.0 9.15177 24.414 15.4194 -16.412 -32.2776 56.2819 0.736401 -20.0415 0.130124 -30.6467 -2.01573 3.31126 2.73362 23.1138 25.994 -0.0 0.0 -0.0 8.23184 27.6676 -14.7571 -3.94905 24.1657 -56.0256 1.01658 26.7286 -0.241521 6.48241 -0.182878 0.807408 2.60064 8.80346 -13.9532 0.0 0.0 0.0 25.6456 18.015 5.28064 -25.5045 0.18984 3.8771 35.4129 25.2889 -4.71401 -36.2709 0.0 0.0 -0.0 0.0 -0.0 -9.20157 51.76 5.78667 -42.5394 0.636174 -6.35006 40.3025 -24.7202 5.18777 13.0198 -0.0 -0.0 0.0 0.0 0.0 
